# MagicaVoxel @ Ephtracy

# group
o 

# material
mtllib GameJam-House4.mtl
usemtl palette

# normals
vn -1 0 0
vn 1 0 0
vn 0 0 1
vn 0 0 -1
vn 0 -1 0
vn 0 1 0

# texcoords
vt 0.00976562 0.5
vt 0.0253906 0.5
vt 0.0917969 0.5

# verts
v -5 2.8 -2.5
v -5 2.8 -4.1
v -5 2.9 3.6
v -5 2.9 1.9
v -5 2.9 -2.6
v -5 2.9 -4
v -5 3 3.5
v -5 3 2
v -5 4.2 -2.6
v -5 4.2 -4
v -5 4.3 -2.5
v -5 4.3 -4.1
v -5 4.4 3.5
v -5 4.4 2
v -5 4.5 3.6
v -5 4.5 1.9
v -4.9 0 4.9
v -4.9 0 -4.9
v -4.9 2.8 -2.5
v -4.9 2.8 -4.1
v -4.9 2.9 3.6
v -4.9 2.9 1.9
v -4.9 4.3 -2.5
v -4.9 4.3 -4.1
v -4.9 4.5 3.6
v -4.9 4.5 1.9
v -4.9 7.6 4.9
v -4.9 7.6 -4.9
v -1.3 0 -4.9
v -1.3 0 -5
v -1.3 3.9 -4.9
v -1.3 3.9 -5
v -1.2 3.9 -4.9
v -1.2 3.9 -5
v -1.2 4 -4.9
v -1.2 4 -5
v -0.8 4 -4.9
v -0.8 4 -5
v -0.8 4.1 -4.9
v -0.8 4.1 -5
v 1 3.9 -4.7
v 1 3.9 -4.9
v 1 3.9 -5
v 1 4 -4.7
v 1 4 -4.9
v 1 4 -5
v 1.4 0.1 -4.7
v 1.4 0.1 -4.8
v 1.4 0.1 -4.9
v 1.4 0.1 -5
v 1.4 3.9 -4.7
v 1.4 3.9 -4.9
v 1.4 3.9 -5
v 2.4 2.4 -4.9
v 2.4 2.4 -5
v 2.4 3.8 -4.9
v 2.4 3.8 -5
v 3.8 2.5 -4.7
v 3.8 2.5 -4.9
v 3.8 2.5 -5
v 3.8 3.7 -4.7
v 3.8 3.7 -4.9
v 3.8 3.7 -5
v 4.7 0.1 4.7
v 4.7 0.1 -4.7
v 4.7 2.1 -3.1
v 4.7 2.1 -4.1
v 4.7 3.8 -3.1
v 4.7 3.8 -4.1
v 4.7 7.1 4.7
v 4.7 7.1 -4.7
v 4.8 7.2 4.8
v 4.8 7.2 -4.8
v 4.8 7.6 4.8
v 4.8 7.6 -4.8
v -4.8 7.2 4.8
v -4.8 7.2 -4.8
v -4.8 7.6 4.8
v -4.8 7.6 -4.8
v -4.7 0.1 4.7
v -4.7 0.1 -4.7
v -4.7 2.9 -2.6
v -4.7 2.9 -4
v -4.7 3 3.5
v -4.7 3 2
v -4.7 4.2 -2.6
v -4.7 4.2 -4
v -4.7 4.4 3.5
v -4.7 4.4 2
v -4.7 7.1 4.7
v -4.7 7.1 -4.7
v -1.2 0.1 -4.7
v -1.2 0.1 -4.8
v -1.2 0.1 -4.9
v -1.2 0.1 -5
v -1.2 3.9 -4.7
v -1.2 3.9 -4.9
v -1.2 3.9 -5
v -0.8 3.9 -4.7
v -0.8 3.9 -4.9
v -0.8 3.9 -5
v -0.8 4 -4.7
v -0.8 4 -4.9
v -0.8 4 -5
v 1 4 -4.9
v 1 4 -5
v 1 4.1 -4.9
v 1 4.1 -5
v 1.4 3.9 -4.9
v 1.4 3.9 -5
v 1.4 4 -4.9
v 1.4 4 -5
v 1.5 0 -4.9
v 1.5 0 -5
v 1.5 3.9 -4.9
v 1.5 3.9 -5
v 2.5 2.5 -4.7
v 2.5 2.5 -4.9
v 2.5 2.5 -5
v 2.5 3.7 -4.7
v 2.5 3.7 -4.9
v 2.5 3.7 -5
v 3.9 2.4 -4.9
v 3.9 2.4 -5
v 3.9 3.8 -4.9
v 3.9 3.8 -5
v 4.9 0 4.9
v 4.9 0 -4.9
v 4.9 2 -3
v 4.9 2 -4.2
v 4.9 3.9 -3
v 4.9 3.9 -4.2
v 4.9 7.6 4.9
v 4.9 7.6 -4.9
v 5 2 -3
v 5 2 -4.2
v 5 2.1 -3.1
v 5 2.1 -4.1
v 5 3.8 -3.1
v 5 3.8 -4.1
v 5 3.9 -3
v 5 3.9 -4.2
v -4.9 0 4.9
v -4.9 7.6 4.9
v 4.9 0 4.9
v 4.9 7.6 4.9
v -5 2.9 3.6
v -5 4.5 3.6
v -4.9 2.9 3.6
v -4.9 4.5 3.6
v -5 3 2
v -5 4.4 2
v -4.9 3 2
v -4.9 4.4 2
v -4.7 3 2
v -4.7 4.4 2
v -5 2.8 -2.5
v -5 4.3 -2.5
v -4.9 2.8 -2.5
v -4.9 4.3 -2.5
v 4.9 2 -3
v 4.9 3.9 -3
v 5 2 -3
v 5 3.9 -3
v -5 2.9 -4
v -5 4.2 -4
v -4.9 2.9 -4
v -4.9 4.2 -4
v -4.7 2.9 -4
v -4.7 4.2 -4
v 4.7 2.1 -4.1
v 4.7 3.8 -4.1
v 4.9 2.1 -4.1
v 4.9 3.8 -4.1
v 5 2.1 -4.1
v 5 3.8 -4.1
v -4.7 0.1 -4.7
v -4.7 7.1 -4.7
v -1.2 0.1 -4.7
v -1.2 3.9 -4.7
v -0.8 3.9 -4.7
v -0.8 4 -4.7
v 1 3.9 -4.7
v 1 4 -4.7
v 1.4 0.1 -4.7
v 1.4 3.9 -4.7
v 2.5 2.5 -4.7
v 2.5 3.7 -4.7
v 3.8 2.5 -4.7
v 3.8 3.7 -4.7
v 4.7 0.1 -4.7
v 4.7 7.1 -4.7
v -4.8 7.2 -4.8
v -4.8 7.6 -4.8
v 4.8 7.2 -4.8
v 4.8 7.6 -4.8
v -4.8 7.2 4.8
v -4.8 7.6 4.8
v 4.8 7.2 4.8
v 4.8 7.6 4.8
v -4.7 0.1 4.7
v -4.7 7.1 4.7
v 4.7 0.1 4.7
v 4.7 7.1 4.7
v -5 3 3.5
v -5 4.4 3.5
v -4.9 3 3.5
v -4.9 4.4 3.5
v -4.7 3 3.5
v -4.7 4.4 3.5
v -5 2.9 1.9
v -5 4.5 1.9
v -4.9 2.9 1.9
v -4.9 4.5 1.9
v -5 2.9 -2.6
v -5 4.2 -2.6
v -4.9 2.9 -2.6
v -4.9 4.2 -2.6
v -4.7 2.9 -2.6
v -4.7 4.2 -2.6
v 4.7 2.1 -3.1
v 4.7 3.8 -3.1
v 4.9 2.1 -3.1
v 4.9 3.8 -3.1
v 5 2.1 -3.1
v 5 3.8 -3.1
v -5 2.8 -4.1
v -5 4.3 -4.1
v -4.9 2.8 -4.1
v -4.9 4.3 -4.1
v 4.9 2 -4.2
v 4.9 3.9 -4.2
v 5 2 -4.2
v 5 3.9 -4.2
v -4.9 0 -4.9
v -4.9 7.6 -4.9
v -1.3 0 -4.9
v -1.3 3.9 -4.9
v -1.2 3.9 -4.9
v -1.2 4 -4.9
v -0.8 4 -4.9
v -0.8 4.1 -4.9
v 1 4 -4.9
v 1 4.1 -4.9
v 1.4 3.9 -4.9
v 1.4 4 -4.9
v 1.5 0 -4.9
v 1.5 3.9 -4.9
v 2.4 2.4 -4.9
v 2.4 3.8 -4.9
v 3.9 2.4 -4.9
v 3.9 3.8 -4.9
v 4.9 0 -4.9
v 4.9 7.6 -4.9
v -1.3 0 -5
v -1.3 3.9 -5
v -1.2 0.1 -5
v -1.2 3.9 -5
v -1.2 4 -5
v -0.8 3.9 -5
v -0.8 4 -5
v -0.8 4.1 -5
v 1 3.9 -5
v 1 4 -5
v 1 4.1 -5
v 1.4 0.1 -5
v 1.4 3.9 -5
v 1.4 4 -5
v 1.5 0 -5
v 1.5 3.9 -5
v 2.4 2.4 -5
v 2.4 3.8 -5
v 2.5 2.5 -5
v 2.5 3.7 -5
v 3.8 2.5 -5
v 3.8 3.7 -5
v 3.9 2.4 -5
v 3.9 3.8 -5
v -4.9 0 4.9
v 4.9 0 4.9
v -4.8 0 4.8
v 4.8 0 4.8
v -4.8 0 -4.8
v -1.3 0 -4.8
v -1.2 0 -4.8
v 1.4 0 -4.8
v 1.5 0 -4.8
v 4.8 0 -4.8
v -4.9 0 -4.9
v -1.3 0 -4.9
v -1.2 0 -4.9
v 1.4 0 -4.9
v 1.5 0 -4.9
v 4.9 0 -4.9
v -1.3 0 -5
v 1.5 0 -5
v 4.9 2 -3
v 5 2 -3
v 4.9 2 -4.2
v 5 2 -4.2
v 2.4 2.4 -4.9
v 3.9 2.4 -4.9
v 2.4 2.4 -5
v 3.9 2.4 -5
v -5 2.8 -2.5
v -4.9 2.8 -2.5
v -5 2.8 -4.1
v -4.9 2.8 -4.1
v -5 2.9 3.6
v -4.9 2.9 3.6
v -5 2.9 1.9
v -4.9 2.9 1.9
v 2.5 3.7 -4.7
v 3.8 3.7 -4.7
v 2.5 3.7 -4.9
v 3.8 3.7 -4.9
v 2.5 3.7 -5
v 3.8 3.7 -5
v 4.7 3.8 -3.1
v 4.9 3.8 -3.1
v 5 3.8 -3.1
v 4.7 3.8 -4.1
v 4.9 3.8 -4.1
v 5 3.8 -4.1
v -1.2 3.9 -4.7
v -0.8 3.9 -4.7
v 1 3.9 -4.7
v 1.4 3.9 -4.7
v -1.2 3.9 -4.9
v -0.8 3.9 -4.9
v 1 3.9 -4.9
v 1.4 3.9 -4.9
v -1.2 3.9 -5
v -0.8 3.9 -5
v 1 3.9 -5
v 1.4 3.9 -5
v -0.8 4 -4.7
v 1 4 -4.7
v -0.8 4 -4.9
v 1 4 -4.9
v -0.8 4 -5
v 1 4 -5
v -5 4.2 -2.6
v -4.9 4.2 -2.6
v -4.7 4.2 -2.6
v -5 4.2 -4
v -4.9 4.2 -4
v -4.7 4.2 -4
v -5 4.4 3.5
v -4.9 4.4 3.5
v -4.7 4.4 3.5
v -5 4.4 2
v -4.9 4.4 2
v -4.7 4.4 2
v -4.7 7.1 4.7
v 4.7 7.1 4.7
v -4.7 7.1 -4.7
v 4.7 7.1 -4.7
v -4.7 0.1 4.7
v 4.7 0.1 4.7
v -4.7 0.1 -4.7
v -1.2 0.1 -4.7
v 1.4 0.1 -4.7
v 4.7 0.1 -4.7
v -1.2 0.1 -4.8
v 1.4 0.1 -4.8
v -1.2 0.1 -4.9
v 1.4 0.1 -4.9
v -1.2 0.1 -5
v 1.4 0.1 -5
v 4.7 2.1 -3.1
v 4.9 2.1 -3.1
v 5 2.1 -3.1
v 4.7 2.1 -4.1
v 4.9 2.1 -4.1
v 5 2.1 -4.1
v 2.5 2.5 -4.7
v 3.8 2.5 -4.7
v 2.5 2.5 -4.9
v 3.8 2.5 -4.9
v 2.5 2.5 -5
v 3.8 2.5 -5
v -5 2.9 -2.6
v -4.9 2.9 -2.6
v -4.7 2.9 -2.6
v -5 2.9 -4
v -4.9 2.9 -4
v -4.7 2.9 -4
v -5 3 3.5
v -4.9 3 3.5
v -4.7 3 3.5
v -5 3 2
v -4.9 3 2
v -4.7 3 2
v 2.4 3.8 -4.9
v 3.9 3.8 -4.9
v 2.4 3.8 -5
v 3.9 3.8 -5
v 4.9 3.9 -3
v 5 3.9 -3
v 4.9 3.9 -4.2
v 5 3.9 -4.2
v -1.3 3.9 -4.9
v -1.2 3.9 -4.9
v 1.4 3.9 -4.9
v 1.5 3.9 -4.9
v -1.3 3.9 -5
v -1.2 3.9 -5
v 1.4 3.9 -5
v 1.5 3.9 -5
v -1.2 4 -4.9
v -0.8 4 -4.9
v 1 4 -4.9
v 1.4 4 -4.9
v -1.2 4 -5
v -0.8 4 -5
v 1 4 -5
v 1.4 4 -5
v -0.8 4.1 -4.9
v 1 4.1 -4.9
v -0.8 4.1 -5
v 1 4.1 -5
v -5 4.3 -2.5
v -4.9 4.3 -2.5
v -5 4.3 -4.1
v -4.9 4.3 -4.1
v -5 4.5 3.6
v -4.9 4.5 3.6
v -5 4.5 1.9
v -4.9 4.5 1.9
v -4.8 7.2 4.8
v 4.8 7.2 4.8
v -4.8 7.2 -4.8
v 4.8 7.2 -4.8
v -4.9 7.6 4.9
v 4.9 7.6 4.9
v -4.8 7.6 4.8
v 4.8 7.6 4.8
v -4.8 7.6 -4.8
v 4.8 7.6 -4.8
v -4.9 7.6 -4.9
v 4.9 7.6 -4.9

# faces
f 5/2/1 2/2/1 1/2/1
f 6/2/1 2/2/1 5/2/1
f 7/2/1 4/2/1 3/2/1
f 8/2/1 4/2/1 7/2/1
f 9/2/1 5/2/1 1/2/1
f 10/2/1 2/2/1 6/2/1
f 11/2/1 9/2/1 1/2/1
f 11/2/1 10/2/1 9/2/1
f 12/2/1 2/2/1 10/2/1
f 12/2/1 10/2/1 11/2/1
f 13/2/1 7/2/1 3/2/1
f 14/2/1 4/2/1 8/2/1
f 15/2/1 13/2/1 3/2/1
f 15/2/1 14/2/1 13/2/1
f 16/2/1 4/2/1 14/2/1
f 16/2/1 14/2/1 15/2/1
f 19/3/1 18/3/1 17/3/1
f 20/3/1 18/3/1 19/3/1
f 21/3/1 19/3/1 17/3/1
f 22/3/1 19/3/1 21/3/1
f 23/3/1 19/3/1 22/3/1
f 24/3/1 18/3/1 20/3/1
f 25/3/1 21/3/1 17/3/1
f 26/3/1 23/3/1 22/3/1
f 26/3/1 24/3/1 23/3/1
f 27/3/1 25/3/1 17/3/1
f 27/3/1 26/3/1 25/3/1
f 28/3/1 24/3/1 26/3/1
f 28/3/1 26/3/1 27/3/1
f 28/3/1 18/3/1 24/3/1
f 31/2/1 30/2/1 29/2/1
f 32/2/1 30/2/1 31/2/1
f 35/2/1 34/2/1 33/2/1
f 36/2/1 34/2/1 35/2/1
f 39/2/1 38/2/1 37/2/1
f 40/2/1 38/2/1 39/2/1
f 44/1/1 42/1/1 41/1/1
f 45/2/1 43/2/1 42/2/1
f 45/1/1 42/1/1 44/1/1
f 46/2/1 43/2/1 45/2/1
f 51/1/1 48/1/1 47/1/1
f 51/1/1 49/1/1 48/1/1
f 52/2/1 50/2/1 49/2/1
f 52/1/1 49/1/1 51/1/1
f 53/2/1 50/2/1 52/2/1
f 56/2/1 55/2/1 54/2/1
f 57/2/1 55/2/1 56/2/1
f 61/1/1 59/1/1 58/1/1
f 62/2/1 60/2/1 59/2/1
f 62/1/1 59/1/1 61/1/1
f 63/2/1 60/2/1 62/2/1
f 66/1/1 65/1/1 64/1/1
f 67/1/1 65/1/1 66/1/1
f 68/1/1 66/1/1 64/1/1
f 69/1/1 65/1/1 67/1/1
f 70/1/1 68/1/1 64/1/1
f 70/1/1 69/1/1 68/1/1
f 71/1/1 65/1/1 69/1/1
f 71/1/1 69/1/1 70/1/1
f 74/3/1 73/3/1 72/3/1
f 75/3/1 73/3/1 74/3/1
f 76/3/2 77/3/2 78/3/2
f 78/3/2 77/3/2 79/3/2
f 80/1/2 81/1/2 82/1/2
f 82/1/2 81/1/2 83/1/2
f 80/1/2 82/1/2 84/1/2
f 84/1/2 82/1/2 85/1/2
f 85/1/2 82/1/2 86/1/2
f 83/1/2 81/1/2 87/1/2
f 80/1/2 84/1/2 88/1/2
f 85/1/2 86/1/2 89/1/2
f 86/1/2 87/1/2 89/1/2
f 80/1/2 88/1/2 90/1/2
f 88/1/2 89/1/2 90/1/2
f 89/1/2 87/1/2 91/1/2
f 90/1/2 89/1/2 91/1/2
f 87/1/2 81/1/2 91/1/2
f 92/1/2 93/1/2 96/1/2
f 93/1/2 94/1/2 96/1/2
f 94/2/2 95/2/2 97/2/2
f 96/1/2 94/1/2 97/1/2
f 97/2/2 95/2/2 98/2/2
f 99/1/2 100/1/2 102/1/2
f 100/2/2 101/2/2 103/2/2
f 102/1/2 100/1/2 103/1/2
f 103/2/2 101/2/2 104/2/2
f 105/2/2 106/2/2 107/2/2
f 107/2/2 106/2/2 108/2/2
f 109/2/2 110/2/2 111/2/2
f 111/2/2 110/2/2 112/2/2
f 113/2/2 114/2/2 115/2/2
f 115/2/2 114/2/2 116/2/2
f 117/1/2 118/1/2 120/1/2
f 118/2/2 119/2/2 121/2/2
f 120/1/2 118/1/2 121/1/2
f 121/2/2 119/2/2 122/2/2
f 123/2/2 124/2/2 125/2/2
f 125/2/2 124/2/2 126/2/2
f 127/3/2 128/3/2 129/3/2
f 129/3/2 128/3/2 130/3/2
f 127/3/2 129/3/2 131/3/2
f 130/3/2 128/3/2 132/3/2
f 127/3/2 131/3/2 133/3/2
f 131/3/2 132/3/2 133/3/2
f 132/3/2 128/3/2 134/3/2
f 133/3/2 132/3/2 134/3/2
f 135/2/2 136/2/2 137/2/2
f 137/2/2 136/2/2 138/2/2
f 135/2/2 137/2/2 139/2/2
f 138/2/2 136/2/2 140/2/2
f 135/2/2 139/2/2 141/2/2
f 139/2/2 140/2/2 141/2/2
f 140/2/2 136/2/2 142/2/2
f 141/2/2 140/2/2 142/2/2
f 145/3/3 144/3/3 143/3/3
f 146/3/3 144/3/3 145/3/3
f 149/2/3 148/2/3 147/2/3
f 150/2/3 148/2/3 149/2/3
f 153/2/3 152/2/3 151/2/3
f 154/2/3 152/2/3 153/2/3
f 155/1/3 154/1/3 153/1/3
f 156/1/3 154/1/3 155/1/3
f 159/2/3 158/2/3 157/2/3
f 160/2/3 158/2/3 159/2/3
f 163/2/3 162/2/3 161/2/3
f 164/2/3 162/2/3 163/2/3
f 167/2/3 166/2/3 165/2/3
f 168/2/3 166/2/3 167/2/3
f 169/1/3 168/1/3 167/1/3
f 170/1/3 168/1/3 169/1/3
f 173/1/3 172/1/3 171/1/3
f 174/1/3 172/1/3 173/1/3
f 175/2/3 174/2/3 173/2/3
f 176/2/3 174/2/3 175/2/3
f 179/1/3 178/1/3 177/1/3
f 180/1/3 178/1/3 179/1/3
f 181/1/3 178/1/3 180/1/3
f 182/1/3 178/1/3 181/1/3
f 184/1/3 178/1/3 182/1/3
f 186/1/3 184/1/3 183/1/3
f 187/1/3 186/1/3 185/1/3
f 188/1/3 186/1/3 187/1/3
f 189/1/3 187/1/3 185/1/3
f 190/1/3 186/1/3 188/1/3
f 191/1/3 189/1/3 185/1/3
f 191/1/3 190/1/3 189/1/3
f 192/1/3 178/1/3 184/1/3
f 192/1/3 190/1/3 191/1/3
f 192/1/3 184/1/3 186/1/3
f 192/1/3 186/1/3 190/1/3
f 195/3/3 194/3/3 193/3/3
f 196/3/3 194/3/3 195/3/3
f 197/3/4 198/3/4 199/3/4
f 199/3/4 198/3/4 200/3/4
f 201/1/4 202/1/4 203/1/4
f 203/1/4 202/1/4 204/1/4
f 205/2/4 206/2/4 207/2/4
f 207/2/4 206/2/4 208/2/4
f 207/1/4 208/1/4 209/1/4
f 209/1/4 208/1/4 210/1/4
f 211/2/4 212/2/4 213/2/4
f 213/2/4 212/2/4 214/2/4
f 215/2/4 216/2/4 217/2/4
f 217/2/4 216/2/4 218/2/4
f 217/1/4 218/1/4 219/1/4
f 219/1/4 218/1/4 220/1/4
f 221/1/4 222/1/4 223/1/4
f 223/1/4 222/1/4 224/1/4
f 223/2/4 224/2/4 225/2/4
f 225/2/4 224/2/4 226/2/4
f 227/2/4 228/2/4 229/2/4
f 229/2/4 228/2/4 230/2/4
f 231/2/4 232/2/4 233/2/4
f 233/2/4 232/2/4 234/2/4
f 235/3/4 236/3/4 237/3/4
f 237/3/4 236/3/4 238/3/4
f 238/3/4 236/3/4 239/3/4
f 239/3/4 236/3/4 240/3/4
f 240/3/4 236/3/4 241/3/4
f 241/3/4 236/3/4 242/3/4
f 242/3/4 236/3/4 244/3/4
f 243/3/4 244/3/4 246/3/4
f 245/3/4 246/3/4 248/3/4
f 247/3/4 248/3/4 249/3/4
f 249/3/4 248/3/4 250/3/4
f 247/3/4 249/3/4 251/3/4
f 250/3/4 248/3/4 252/3/4
f 247/3/4 251/3/4 253/3/4
f 251/3/4 252/3/4 253/3/4
f 244/3/4 236/3/4 254/3/4
f 253/3/4 252/3/4 254/3/4
f 246/3/4 244/3/4 254/3/4
f 248/3/4 246/3/4 254/3/4
f 252/3/4 248/3/4 254/3/4
f 255/2/4 256/2/4 257/2/4
f 257/2/4 256/2/4 258/2/4
f 258/2/4 259/2/4 260/2/4
f 260/2/4 259/2/4 261/2/4
f 261/2/4 262/2/4 264/2/4
f 264/2/4 262/2/4 265/2/4
f 255/2/4 257/2/4 266/2/4
f 263/2/4 264/2/4 267/2/4
f 267/2/4 264/2/4 268/2/4
f 255/2/4 266/2/4 269/2/4
f 266/2/4 267/2/4 269/2/4
f 269/2/4 267/2/4 270/2/4
f 271/2/4 272/2/4 273/2/4
f 273/2/4 272/2/4 274/2/4
f 271/2/4 273/2/4 275/2/4
f 274/2/4 272/2/4 276/2/4
f 271/2/4 275/2/4 277/2/4
f 275/2/4 276/2/4 277/2/4
f 276/2/4 272/2/4 278/2/4
f 277/2/4 276/2/4 278/2/4
f 281/3/5 280/3/5 279/3/5
f 282/3/5 280/3/5 281/3/5
f 283/3/5 281/3/5 279/3/5
f 283/1/5 282/1/5 281/1/5
f 284/1/5 282/1/5 283/1/5
f 285/1/5 282/1/5 284/1/5
f 286/1/5 282/1/5 285/1/5
f 287/1/5 282/1/5 286/1/5
f 288/3/5 280/3/5 282/3/5
f 288/1/5 282/1/5 287/1/5
f 289/3/5 283/3/5 279/3/5
f 289/3/5 284/3/5 283/3/5
f 290/1/5 285/1/5 284/1/5
f 290/3/5 284/3/5 289/3/5
f 291/2/5 286/2/5 285/2/5
f 291/1/5 285/1/5 290/1/5
f 292/1/5 287/1/5 286/1/5
f 292/2/5 286/2/5 291/2/5
f 293/3/5 288/3/5 287/3/5
f 293/1/5 287/1/5 292/1/5
f 294/3/5 280/3/5 288/3/5
f 294/3/5 288/3/5 293/3/5
f 295/2/5 291/2/5 290/2/5
f 295/2/5 293/2/5 292/2/5
f 295/2/5 292/2/5 291/2/5
f 296/2/5 293/2/5 295/2/5
f 299/2/5 298/2/5 297/2/5
f 300/2/5 298/2/5 299/2/5
f 303/2/5 302/2/5 301/2/5
f 304/2/5 302/2/5 303/2/5
f 307/2/5 306/2/5 305/2/5
f 308/2/5 306/2/5 307/2/5
f 311/2/5 310/2/5 309/2/5
f 312/2/5 310/2/5 311/2/5
f 315/1/5 314/1/5 313/1/5
f 316/1/5 314/1/5 315/1/5
f 317/2/5 316/2/5 315/2/5
f 318/2/5 316/2/5 317/2/5
f 322/1/5 320/1/5 319/1/5
f 323/2/5 321/2/5 320/2/5
f 323/1/5 320/1/5 322/1/5
f 324/2/5 321/2/5 323/2/5
f 329/1/5 326/1/5 325/1/5
f 330/1/5 326/1/5 329/1/5
f 331/1/5 328/1/5 327/1/5
f 332/1/5 328/1/5 331/1/5
f 333/2/5 330/2/5 329/2/5
f 334/2/5 330/2/5 333/2/5
f 335/2/5 332/2/5 331/2/5
f 336/2/5 332/2/5 335/2/5
f 339/1/5 338/1/5 337/1/5
f 340/1/5 338/1/5 339/1/5
f 341/2/5 340/2/5 339/2/5
f 342/2/5 340/2/5 341/2/5
f 346/2/5 344/2/5 343/2/5
f 347/1/5 345/1/5 344/1/5
f 347/2/5 344/2/5 346/2/5
f 348/1/5 345/1/5 347/1/5
f 352/2/5 350/2/5 349/2/5
f 353/1/5 351/1/5 350/1/5
f 353/2/5 350/2/5 352/2/5
f 354/1/5 351/1/5 353/1/5
f 357/3/5 356/3/5 355/3/5
f 358/3/5 356/3/5 357/3/5
f 359/1/6 360/1/6 361/1/6
f 361/1/6 360/1/6 362/1/6
f 362/1/6 360/1/6 363/1/6
f 363/1/6 360/1/6 364/1/6
f 362/1/6 363/1/6 365/1/6
f 365/1/6 363/1/6 366/1/6
f 365/2/6 366/2/6 367/2/6
f 367/2/6 366/2/6 368/2/6
f 367/2/6 368/2/6 369/2/6
f 369/2/6 368/2/6 370/2/6
f 371/1/6 372/1/6 374/1/6
f 372/2/6 373/2/6 375/2/6
f 374/1/6 372/1/6 375/1/6
f 375/2/6 373/2/6 376/2/6
f 377/1/6 378/1/6 379/1/6
f 379/1/6 378/1/6 380/1/6
f 379/2/6 380/2/6 381/2/6
f 381/2/6 380/2/6 382/2/6
f 383/2/6 384/2/6 386/2/6
f 384/1/6 385/1/6 387/1/6
f 386/2/6 384/2/6 387/2/6
f 387/1/6 385/1/6 388/1/6
f 389/2/6 390/2/6 392/2/6
f 390/1/6 391/1/6 393/1/6
f 392/2/6 390/2/6 393/2/6
f 393/1/6 391/1/6 394/1/6
f 395/2/6 396/2/6 397/2/6
f 397/2/6 396/2/6 398/2/6
f 399/2/6 400/2/6 401/2/6
f 401/2/6 400/2/6 402/2/6
f 403/2/6 404/2/6 407/2/6
f 407/2/6 404/2/6 408/2/6
f 405/2/6 406/2/6 409/2/6
f 409/2/6 406/2/6 410/2/6
f 411/2/6 412/2/6 415/2/6
f 415/2/6 412/2/6 416/2/6
f 413/2/6 414/2/6 417/2/6
f 417/2/6 414/2/6 418/2/6
f 419/2/6 420/2/6 421/2/6
f 421/2/6 420/2/6 422/2/6
f 423/2/6 424/2/6 425/2/6
f 425/2/6 424/2/6 426/2/6
f 427/2/6 428/2/6 429/2/6
f 429/2/6 428/2/6 430/2/6
f 431/3/6 432/3/6 433/3/6
f 433/3/6 432/3/6 434/3/6
f 435/3/6 436/3/6 437/3/6
f 437/3/6 436/3/6 438/3/6
f 435/3/6 437/3/6 439/3/6
f 438/3/6 436/3/6 440/3/6
f 435/3/6 439/3/6 441/3/6
f 439/3/6 440/3/6 441/3/6
f 440/3/6 436/3/6 442/3/6
f 441/3/6 440/3/6 442/3/6
